<svg xmlns="http://www.w3.org/2000/svg" xmlns:xlink="http://www.w3.org/1999/xlink" width="435" height="105" viewBox="0 0 435 105"><defs><style>.a{opacity:0.08;}.b{fill:none;stroke:#d548ff;stroke-linecap:round;opacity:0.3;}.c{fill:url(#a);}.d,.e{fill:#fff;}.d{font-size:15px;font-family:PTSans-Regular, PT Sans;opacity:0.4;}.e{font-size:17px;font-family:PTSans-Bold, PT Sans;font-weight:700;}</style><linearGradient id="a" x1="0.5" x2="0.5" y2="1" gradientUnits="objectBoundingBox"><stop offset="0" stop-color="#c604ff"/><stop offset="1" stop-color="#be00eb" stop-opacity="0"/></linearGradient></defs><g transform="translate(-385 128)"><rect class="a" width="435" height="105" transform="translate(385 -128)"/><g transform="translate(404 -113)"><line class="b" x2="145" transform="translate(1 76)"/><path class="c" d="M29.725,272.148v-17h10v17h-10" transform="translate(-24.225 -196.649)"/><path class="c" d="M81.311,281.137V236.99h10v44.146h-10" transform="translate(-61.811 -205.637)"/><path class="c" d="M132.947,246.563v-30h10v30h-10" transform="translate(-99.447 -171.063)"/><path class="c" d="M184.558,115.871V78.121h10v37.75h-10" transform="translate(-137.058 -40.371)"/><path class="c" d="M236.169,260.71V216.563h10V260.71h-10" transform="translate(-174.669 -185.21)"/><path class="c" d="M286.781,263.393v-37.75h10v37.75h-10" transform="translate(-211.281 -187.893)"/><path class="c" d="M338.392,284.785V234.722h10v50.063h-10" transform="translate(-248.892 -209.285)"/><path class="c" d="M390,272.149v-17h10v17H390" transform="translate(-286.503 -196.649)"/><path class="c" d="M441.639,285.573v-10h10v10h-10" transform="translate(-324.139 -210.073)"/><path class="c" d="M493.225,295.191v-6h10v6h-10" transform="translate(-361.725 -219.691)"/></g><text class="d" transform="translate(580 -83)"><tspan x="0" y="15">Pellentesque tincidunt tristique </tspan><tspan x="0" y="37">neque, eget venenatis enim </tspan></text><text class="e" transform="translate(580 -97)"><tspan x="0" y="0">Activity</tspan></text></g></svg>