<svg xmlns="http://www.w3.org/2000/svg" width="745" height="105" viewBox="0 0 745 105"><defs><style>.a{opacity:0.08;}.b,.c{fill:#fff;font-family:PTSans-Regular, PT Sans;}.b{font-size:14px;opacity:0.4;}.c{font-size:36px;}.d,.e,.f,.h{fill:none;stroke-width:5px;}.d{stroke:#f5f5f5;opacity:0.1;}.e{stroke:#ff48ff;}.e,.f,.h{stroke-linecap:round;stroke-dasharray:0;}.f{stroke:#48ffb0;}.g{font-size:20.999px;baseline-shift:11.998800158684602;}.h{stroke:#3dfff2;}</style></defs><g transform="translate(-310 128)"><path class="a" d="M0,0H745V105H0Z" transform="translate(310 -128)"/><text class="b" transform="translate(647 -50.159)"><tspan x="0" y="0">Conversion Rate</tspan></text><text class="b" transform="translate(901 -50.159)"><tspan x="0" y="0">Engagement Rate</tspan></text><text class="c" transform="translate(647 -74.302)"><tspan x="0" y="0">48k</tspan></text><text class="c" transform="translate(901 -74.302)"><tspan x="0" y="0">21k</tspan></text><g transform="translate(580 -103.726)"><circle class="d" cx="24" cy="24" r="24" transform="translate(0 3.772)"/><path class="e" d="M7.026,40.935a23.973,23.973,0,0,1,33.9-33.9" transform="translate(57.685 32.692) rotate(143)"/></g><g transform="translate(834 -103.726)"><circle class="d" cx="24" cy="24" r="24" transform="translate(0 3.772)"/><path class="f" d="M7.026,40.935a23.973,23.973,0,0,1,33.9-33.9" transform="translate(57.685 32.692) rotate(143)"/></g><text class="b" transform="translate(415 -49.856)"><tspan x="0" y="0">Bounce Rate</tspan></text><text class="c" transform="translate(415 -73.999)"><tspan x="0" y="0">67</tspan><tspan class="g" y="0">%</tspan></text><g transform="translate(342 -99.969)"><circle class="d" cx="24" cy="24" r="24" transform="translate(5.264 3.772)"/><path class="h" d="M7.026,40.935a23.973,23.973,0,0,1,33.9-33.9,23.751,23.751,0,0,1,6.027,23.806" transform="translate(62.949 32.692) rotate(143)"/></g></g></svg>