<svg xmlns="http://www.w3.org/2000/svg" xmlns:xlink="http://www.w3.org/1999/xlink" width="435" height="105" viewBox="0 0 435 105"><defs><style>.a{opacity:0.08;}.b,.e{fill:#fff;}.b{font-size:17px;font-family:PTSans-Bold, PT Sans;font-weight:700;}.c{fill:none;stroke:#00dff8;stroke-linecap:round;opacity:0.3;}.d{fill:url(#a);}.e{font-size:15px;font-family:PTSans-Regular, PT Sans;opacity:0.4;}</style><linearGradient id="a" x1="0.5" y1="1" x2="0.5" gradientUnits="objectBoundingBox"><stop offset="0" stop-color="#009eaa" stop-opacity="0"/><stop offset="1" stop-color="#00e5ff"/></linearGradient></defs><g transform="translate(-385 128)"><rect class="a" width="435" height="105" transform="translate(385 -128)"/><text class="b" transform="translate(580 -94)"><tspan x="0" y="0">Registration</tspan></text><g transform="translate(404 -112.963)"><line class="c" x2="145" transform="translate(1 76)"/><path class="d" d="M29.725,272.148v-17h10v17h-10" transform="translate(-24.225 -196.649)"/><path class="d" d="M81.311,259.99v-23h10v23h-10" transform="translate(-61.811 -184.49)"/><path class="d" d="M132.947,246.563v-30h10v30h-10" transform="translate(-99.447 -171.063)"/><path class="d" d="M184.558,140.658V78.121h10v62.537h-10" transform="translate(-137.058 -65.158)"/><path class="d" d="M236.169,246.563v-30h10v30h-10" transform="translate(-174.669 -171.063)"/><path class="d" d="M286.781,273.616V225.643h10v47.973h-10" transform="translate(-211.281 -198.116)"/><path class="d" d="M338.392,268.583V234.722h10v33.861h-10" transform="translate(-248.892 -193.083)"/><path class="d" d="M390,272.149v-17h10v17H390" transform="translate(-286.503 -196.649)"/><path class="d" d="M441.639,285.573v-10h10v10h-10" transform="translate(-324.139 -210.073)"/><path class="d" d="M493.225,295.191v-6h10v6h-10" transform="translate(-361.725 -219.691)"/></g><text class="e" transform="translate(580 -80)"><tspan x="0" y="15">Pellentesque tincidunt tristique </tspan><tspan x="0" y="37">neque, eget venenatis enim </tspan></text></g></svg>